<svg width="1000" height="207" viewBox="0 0 1226 207" fill="none" xmlns="http://www.w3.org/2000/svg">
<g clip-path="url(#clip0_2028_4)">
<path d="M63.2194 137.033C63.2055 138.048 62.986 139.051 62.5735 139.985C62.161 140.919 61.5636 141.765 60.8156 142.475C60.0676 143.185 59.1836 143.745 58.2144 144.122C57.2452 144.499 56.2098 144.687 55.1676 144.674L25.3046 144.35C24.2624 144.341 23.2331 144.131 22.2759 143.733C21.3187 143.335 20.4523 142.756 19.7264 142.03C19.0006 141.304 18.4295 140.445 18.046 139.503C17.6625 138.56 17.4741 137.552 17.4916 136.537L17.9409 107.447C17.9566 106.432 18.1773 105.43 18.5904 104.497C19.0035 103.563 19.601 102.718 20.3487 102.008C21.0963 101.299 21.9796 100.739 22.948 100.361C23.9164 99.9833 24.951 99.7946 25.9927 99.8059C27.0343 99.8172 28.0627 100.028 29.0191 100.427C29.9756 100.826 30.8412 101.404 31.5667 102.13C32.2922 102.855 32.8634 103.714 33.2475 104.655C33.6317 105.597 33.8213 106.604 33.8057 107.619L33.6535 118.073L95.6991 59.1914C97.2065 57.7609 99.2332 56.97 101.333 56.9928C103.433 57.0155 105.435 57.85 106.898 59.3127C108.36 60.7754 109.164 62.7464 109.133 64.7922C109.101 66.838 108.237 68.791 106.729 70.2215L44.6837 129.103L55.4298 129.215C56.4704 129.228 57.4974 129.44 58.4523 129.84C59.4071 130.239 60.2709 130.819 60.9943 131.545C61.7178 132.271 62.2867 133.129 62.6685 134.071C63.0502 135.012 63.2374 136.019 63.2194 137.033ZM152.808 138.003L153.258 108.913C153.275 107.898 153.087 106.89 152.703 105.947C152.32 105.005 151.749 104.146 151.023 103.42C150.297 102.694 149.431 102.115 148.473 101.717C147.516 101.319 146.487 101.109 145.445 101.1L115.582 100.776C113.478 100.754 111.448 101.546 109.938 102.979C108.428 104.412 107.562 106.368 107.53 108.417C107.498 110.467 108.304 112.441 109.769 113.907C111.234 115.372 113.239 116.208 115.343 116.231L126.084 116.347L64.0388 175.229C62.5314 176.659 61.6668 178.612 61.6352 180.658C61.6036 182.704 62.4076 184.675 63.8703 186.138C65.333 187.6 67.3345 188.435 69.4347 188.458C71.5349 188.48 73.5615 187.689 75.0689 186.259L137.115 127.377L136.948 137.845C136.917 139.894 137.722 141.869 139.187 143.334C140.652 144.799 142.657 145.635 144.761 145.658C146.865 145.681 148.895 144.888 150.405 143.455C151.915 142.022 152.781 140.066 152.813 138.017L152.808 138.003Z" fill="#4A5DCD"/>
</g>
<path d="M344.185 157.146C344.185 161.847 343.01 166.156 340.659 170.073C338.309 173.99 335.175 177.124 331.258 179.474C327.341 181.825 323.032 183 318.331 183H283.076C278.375 183 274.001 181.825 269.953 179.474C266.036 177.124 262.902 173.99 260.552 170.073C258.201 166.156 257.026 161.847 257.026 157.146V76.6469C257.026 71.8156 258.201 67.4414 260.552 63.5241C262.902 59.6069 266.036 56.4731 269.953 54.1227C274.001 51.7724 278.375 50.5972 283.076 50.5972H318.331C323.032 50.5972 327.341 51.7724 331.258 54.1227C335.175 56.4731 338.309 59.6069 340.659 63.5241C343.01 67.4414 344.185 71.8156 344.185 76.6469V81.9352C344.185 84.4161 343.336 86.5053 341.638 88.2027C339.941 89.9002 337.787 90.749 335.175 90.749H329.887C327.406 90.749 325.251 89.9002 323.423 88.2027C321.726 86.5053 320.877 84.4161 320.877 81.9352V76.6469C320.877 74.8188 320.028 73.9048 318.331 73.9048H283.076C281.378 73.9048 280.53 74.8188 280.53 76.6469V157.146C280.53 157.799 280.791 158.452 281.313 159.105C281.835 159.627 282.423 159.888 283.076 159.888H318.331C318.984 159.888 319.571 159.627 320.094 159.105C320.616 158.452 320.877 157.799 320.877 157.146V151.27C320.877 148.789 321.726 146.7 323.423 145.003C325.251 143.175 327.406 142.261 329.887 142.261H335.175C337.787 142.261 339.941 143.175 341.638 145.003C343.336 146.7 344.185 148.789 344.185 151.27V157.146ZM488.999 157.146C488.999 161.847 487.824 166.156 485.473 170.073C483.123 173.99 479.989 177.124 476.072 179.474C472.155 181.825 467.846 183 463.145 183H425.539C420.839 183 416.464 181.825 412.417 179.474C408.499 177.124 405.366 173.99 403.015 170.073C400.665 166.156 399.49 161.847 399.49 157.146V76.6469C399.49 71.8156 400.665 67.4414 403.015 63.5241C405.366 59.6069 408.499 56.4731 412.417 54.1227C416.464 51.7724 420.839 50.5972 425.539 50.5972H463.145C467.846 50.5972 472.155 51.7724 476.072 54.1227C479.989 56.4731 483.123 59.6069 485.473 63.5241C487.824 67.4414 488.999 71.8156 488.999 76.6469V157.146ZM465.691 157.146V76.6469C465.691 74.8188 464.842 73.9048 463.145 73.9048H425.539C424.887 73.9048 424.234 74.166 423.581 74.6883C423.058 75.2106 422.797 75.8634 422.797 76.6469V157.146C422.797 157.799 423.058 158.452 423.581 159.105C424.234 159.627 424.887 159.888 425.539 159.888H463.145C463.798 159.888 464.385 159.627 464.908 159.105C465.43 158.452 465.691 157.799 465.691 157.146ZM633.753 173.99C633.753 176.471 632.839 178.626 631.011 180.454C629.313 182.151 627.224 183 624.743 183H619.063C615.538 183 612.926 181.498 611.229 178.495L569.51 106.222C569.249 105.7 568.857 105.569 568.335 105.83C567.813 105.961 567.552 106.222 567.552 106.614V173.99C567.552 176.471 566.638 178.626 564.81 180.454C563.112 182.151 561.088 183 558.738 183H553.254C550.773 183 548.618 182.151 546.79 180.454C545.093 178.626 544.244 176.471 544.244 173.99V59.6069C544.244 56.9954 545.093 54.8409 546.79 53.1434C548.618 51.446 550.773 50.5972 553.254 50.5972H558.934C562.459 50.5972 565.071 52.0988 566.768 55.1021L608.487 127.375C608.879 127.897 609.27 128.093 609.662 127.963C610.184 127.832 610.445 127.506 610.445 126.983V59.6069C610.445 56.9954 611.294 54.8409 612.992 53.1434C614.82 51.446 616.974 50.5972 619.455 50.5972H624.743C627.224 50.5972 629.313 51.446 631.011 53.1434C632.839 54.8409 633.753 56.9954 633.753 59.6069V173.99ZM790.063 62.349L752.066 176.928C751.544 178.626 750.434 180.062 748.736 181.237C747.169 182.412 745.472 183 743.644 183H735.614C733.785 183 732.088 182.412 730.521 181.237C729.085 180.062 728.04 178.626 727.387 176.928L689.39 62.349C688.345 59.4763 688.737 56.7995 690.565 54.3186C692.263 51.8377 694.678 50.5972 697.812 50.5972H703.492C707.801 50.5972 710.674 52.6211 712.11 56.669L738.551 137.364C739.335 138.278 740.053 138.278 740.706 137.364C743.448 128.877 746.255 120.194 749.128 111.314C752.131 102.305 754.939 93.8827 757.55 86.0483C760.162 78.0832 762.316 71.4892 764.014 66.2662L767.147 56.669C767.8 54.8409 768.91 53.4046 770.477 52.36C772.174 51.1848 773.937 50.5972 775.765 50.5972H781.445C784.579 50.5972 786.995 51.8377 788.692 54.3186C790.52 56.669 790.977 59.3457 790.063 62.349ZM930.229 173.99C930.229 176.471 929.314 178.626 927.486 180.454C925.789 182.151 923.765 183 921.415 183H854.038C851.688 183 849.599 182.151 847.771 180.454C846.073 178.626 845.224 176.471 845.224 173.99V59.6069C845.224 56.9954 846.073 54.8409 847.771 53.1434C849.599 51.446 851.688 50.5972 854.038 50.5972H921.415C923.765 50.5972 925.789 51.446 927.486 53.1434C929.314 54.8409 930.229 56.9954 930.229 59.6069V64.8952C930.229 67.3761 929.314 69.5306 927.486 71.3586C925.789 73.0561 923.765 73.9048 921.415 73.9048H870.882C869.315 73.9048 868.532 74.7536 868.532 76.451V102.501C868.532 104.329 869.315 105.243 870.882 105.243H914.364C916.975 105.243 919.13 106.091 920.827 107.789C922.525 109.486 923.373 111.576 923.373 114.057V119.541C923.373 122.022 922.525 124.176 920.827 126.004C919.13 127.702 916.975 128.55 914.364 128.55H870.882C869.315 128.55 868.532 129.334 868.532 130.901V157.342C868.532 159.04 869.315 159.888 870.882 159.888H921.415C923.765 159.888 925.789 160.737 927.486 162.434C929.314 164.132 930.229 166.286 930.229 168.898V173.99ZM1073.73 170.661C1075.04 173.664 1074.84 176.406 1073.14 178.887C1071.18 181.629 1068.7 183 1065.7 183H1059.82C1058.13 183 1056.43 182.478 1054.73 181.433C1053.17 180.389 1052.06 179.083 1051.4 177.516L1032.99 133.447C1032.34 131.88 1031.16 131.097 1029.47 131.097H1011.25C1009.55 131.097 1008.7 131.945 1008.7 133.643V173.99C1008.7 176.471 1007.79 178.626 1005.96 180.454C1004.27 182.151 1002.18 183 999.695 183H994.211C991.73 183 989.641 182.151 987.944 180.454C986.377 178.626 985.593 176.471 985.593 173.99V59.6069C985.593 56.9954 986.377 54.8409 987.944 53.1434C989.641 51.446 991.73 50.5972 994.211 50.5972H1047.29C1051.99 50.5972 1056.3 51.7724 1060.22 54.1227C1064.13 56.4731 1067.27 59.6069 1069.62 63.5241C1071.97 67.4414 1073.14 71.8156 1073.14 76.6469V105.243C1073.14 110.335 1071.77 114.971 1069.03 119.149C1066.42 123.197 1062.96 126.331 1058.65 128.55C1058.13 128.681 1057.74 129.138 1057.47 129.921C1057.21 130.574 1057.28 131.227 1057.67 131.88L1073.73 170.661ZM1049.84 105.243V76.6469C1049.84 74.8188 1048.99 73.9048 1047.29 73.9048H1011.25C1009.55 73.9048 1008.7 74.7536 1008.7 76.451V105.243C1008.7 106.94 1009.55 107.789 1011.25 107.789H1047.29C1048.99 107.789 1049.84 106.94 1049.84 105.243ZM1217.11 64.8952C1217.11 67.3761 1216.27 69.5306 1214.57 71.3586C1212.87 73.0561 1210.72 73.9048 1208.1 73.9048H1187.54C1185.84 73.9048 1184.99 74.7536 1184.99 76.451V173.99C1184.99 176.471 1184.08 178.626 1182.25 180.454C1180.55 182.151 1178.46 183 1175.98 183H1170.89C1168.41 183 1166.26 182.151 1164.43 180.454C1162.73 178.626 1161.88 176.471 1161.88 173.99V76.451C1161.88 74.7536 1161.03 73.9048 1159.34 73.9048H1138.57C1136.09 73.9048 1133.94 73.0561 1132.11 71.3586C1130.41 69.5306 1129.56 67.3761 1129.56 64.8952V59.6069C1129.56 56.9954 1130.41 54.8409 1132.11 53.1434C1133.94 51.446 1136.09 50.5972 1138.57 50.5972H1208.1C1210.72 50.5972 1212.87 51.446 1214.57 53.1434C1216.27 54.8409 1217.11 56.9954 1217.11 59.6069V64.8952Z" fill="#4A5DCD"/>
<defs>
<clipPath id="clip0_2028_4">
<rect width="166.389" height="167.158" fill="white" transform="matrix(1 0 -0.0261531 0.999658 4.37158 39.1724)"/>
</clipPath>
</defs>
</svg>
