<svg width="496" height="133" viewBox="0 0 496 133" fill="none" xmlns="http://www.w3.org/2000/svg">
<path d="M252.579 4.82478C250.945 7.46475 232.703 37.3238 212.01 71.0972L174.346 132.545L179.065 132.818C182.604 133 183.966 132.727 184.873 131.543C185.509 130.724 202.571 103.232 222.901 70.551C243.14 37.7789 260.021 11.0151 260.293 11.0151C260.656 11.1061 269.641 25.2163 280.26 42.4216L299.682 73.8282H305.037C310.482 73.8282 310.482 73.8282 309.302 71.6434C308.667 70.46 298.502 53.8919 286.794 34.8658L265.466 0.182068L260.475 0.091034H255.483L252.579 4.82478Z" fill="white"/>
<path d="M368.476 133H378.46V9.19439H415.943C456.511 9.19439 461.14 9.64956 470.034 14.2012C475.843 17.1143 481.016 22.3943 483.829 28.1294C485.554 31.6797 485.917 33.8645 485.917 41.0561C485.917 48.6119 485.644 50.3415 483.466 54.8022C480.471 61.0835 474.39 66.8186 467.765 69.9138C460.051 73.4641 450.703 74.6475 431.371 74.7385H413.855V82.9316H434.094C451.52 82.9316 455.422 82.6585 461.594 81.1109C471.395 78.5619 477.385 75.4668 483.829 69.4586C493.45 60.5373 497.443 48.976 495.537 35.5031C493.177 18.935 482.649 7.55578 464.679 2.18481C460.414 0.910335 452.972 0.637235 414.127 0.364134L368.476 0V133Z" fill="white"/>
<path d="M0 133H9.07577L9.25728 71.2793L9.52956 9.64956L60.6261 9.37645L111.632 9.19439V1.00137H0V133Z" fill="white"/>
<path d="M140.674 133H150.658V1.00137H140.674V133Z" fill="white"/>
<path d="M36.3031 72.9179H84.4047V64.7249H36.3031V72.9179Z" fill="white"/>
<path d="M317.743 102.686C318.923 104.598 323.551 112.062 328.089 119.345L336.348 132.545L341.612 132.818C344.516 133 346.694 132.727 346.604 132.272C346.422 131.908 341.793 124.261 336.348 115.431L326.455 99.3176H315.655L317.743 102.686Z" fill="white"/>
</svg>
