<svg width="1346" height="348" viewBox="0 0 1346 348" fill="none" xmlns="http://www.w3.org/2000/svg">
<g clip-path="url(#clip0_2020_14)">
<path d="M79.4641 116.345C73.6332 116.18 68.0979 113.81 64.0333 109.738C59.9689 105.665 57.6949 100.211 57.6949 94.5337C57.6949 88.8562 59.9689 83.4021 64.0333 79.3296C68.0979 75.2572 73.6332 72.8871 79.4641 72.7222H222.102C227.933 72.8871 233.469 75.2572 237.533 79.3296C241.597 83.4021 243.872 88.8562 243.872 94.5337C243.872 100.211 241.597 105.665 237.533 109.738C233.469 113.81 227.933 116.18 222.102 116.345H79.4641ZM22.4204 154.26C26.8547 154.26 31.1895 152.98 34.8764 150.582C38.5634 148.185 41.4371 144.777 43.1341 140.79C44.831 136.802 45.2749 132.415 44.4099 128.182C43.5448 123.949 41.4093 120.061 38.2737 117.01C35.1383 113.958 31.1433 111.88 26.7944 111.038C22.4452 110.196 17.9371 110.628 13.8404 112.279C9.74359 113.931 6.24204 116.728 3.77846 120.316C1.3149 123.905 0 128.123 0 132.439C0.0150288 138.217 2.38392 143.753 6.58692 147.833C10.7899 151.913 16.484 154.205 22.4204 154.205V154.26ZM42.7973 231.36C36.8511 231.36 31.1481 233.659 26.9435 237.751C22.7389 241.843 20.3769 247.394 20.3769 253.181C20.3769 258.968 22.7389 264.518 26.9435 268.61C31.1481 272.702 36.8511 275.002 42.7973 275.002H185.416C191.363 275.002 197.065 272.702 201.269 268.61C205.475 264.518 207.837 258.968 207.837 253.181C207.837 247.394 205.475 241.843 201.269 237.751C197.065 233.659 191.363 231.36 185.416 231.36H42.7973ZM75.3965 152.05C72.3986 151.965 69.4138 152.467 66.6188 153.525C63.8237 154.583 61.275 156.176 59.1238 158.21C56.9724 160.244 55.2622 162.677 54.0945 165.365C52.9265 168.054 52.3249 170.943 52.3249 173.862C52.3249 176.781 52.9265 179.67 54.0945 182.359C55.2622 185.047 56.9724 187.48 59.1238 189.514C61.275 191.548 63.8237 193.141 66.6188 194.199C69.4138 195.257 72.3986 195.758 75.3965 195.673H189.484C192.483 195.758 195.467 195.257 198.263 194.199C201.058 193.141 203.606 191.548 205.757 189.514C207.908 187.48 209.619 185.047 210.786 182.359C211.954 179.67 212.555 176.781 212.555 173.862C212.555 170.943 211.954 168.054 210.786 165.365C209.619 162.677 207.908 160.244 205.757 158.21C203.606 156.176 201.058 154.583 198.263 153.525C195.467 152.467 192.483 151.965 189.484 152.05H75.3965ZM242.479 193.464C238.044 193.46 233.706 194.737 230.017 197.134C226.325 199.53 223.449 202.937 221.75 206.925C220.051 210.913 219.605 215.302 220.469 219.537C221.334 223.771 223.47 227.661 226.607 230.714C229.744 233.767 233.74 235.845 238.092 236.687C242.441 237.528 246.952 237.094 251.048 235.441C255.146 233.787 258.648 230.987 261.11 227.396C263.571 223.805 264.884 219.583 264.88 215.266C264.888 212.398 264.315 209.557 263.191 206.906C262.069 204.254 260.421 201.844 258.34 199.814C256.259 197.783 253.786 196.173 251.065 195.073C248.344 193.974 245.427 193.408 242.479 193.408V193.464Z" fill="#CA3884"/>
</g>
<path d="M434.449 298.298V214.498L444.403 201.072C444.094 212.492 441.779 222.369 437.458 230.703C433.291 238.882 427.427 245.21 419.865 249.685C412.302 254.006 403.429 256.167 393.243 256.167C384.446 256.167 376.421 254.546 369.168 251.306C361.914 247.91 355.664 243.358 350.417 237.647C345.324 231.783 341.389 224.915 338.611 217.045C335.987 209.174 334.675 200.686 334.675 191.581V186.256C334.675 177.151 336.064 168.663 338.842 160.792C341.775 152.921 345.864 146.054 351.111 140.189C356.513 134.325 362.84 129.772 370.094 126.531C377.501 123.136 385.681 121.438 394.632 121.438C405.126 121.438 414.154 123.753 421.716 128.383C429.433 132.859 435.452 139.418 439.773 148.06C444.094 156.548 446.409 166.965 446.718 179.311H442.319V125.142H471.719V298.298H434.449ZM404.123 224.915C409.833 224.915 415.003 223.681 419.633 221.212C424.417 218.588 428.198 214.807 430.976 209.868C433.908 204.93 435.375 198.988 435.375 192.044V183.478C435.375 176.688 433.908 170.978 430.976 166.348C428.044 161.718 424.186 158.169 419.402 155.699C414.617 153.23 409.525 151.995 404.123 151.995C397.796 151.995 392.163 153.616 387.224 156.857C382.44 159.943 378.659 164.264 375.881 169.82C373.103 175.222 371.714 181.626 371.714 189.034C371.714 196.288 373.103 202.615 375.881 208.016C378.659 213.418 382.44 217.585 387.224 220.517C392.163 223.449 397.796 224.915 404.123 224.915ZM543.51 255.935C528.849 255.935 517.583 251.228 509.712 241.814C501.842 232.246 497.906 217.893 497.906 198.757V125.142H534.945V200.609C534.945 207.399 536.874 212.801 540.732 216.813C544.591 220.826 549.761 222.832 556.242 222.832C562.878 222.832 568.28 220.749 572.447 216.582C576.614 212.415 578.697 206.782 578.697 199.683V125.142H615.736V252H586.336V198.525H588.883C588.883 211.335 587.185 222.06 583.79 230.703C580.549 239.191 575.688 245.518 569.206 249.685C562.724 253.852 554.699 255.935 545.131 255.935H543.51ZM651.277 252V125.142H688.316V252H651.277ZM634.378 152.458V125.142H688.316V152.458H634.378ZM665.63 112.642C658.685 112.642 653.515 110.867 650.12 107.317C646.879 103.614 645.258 98.9837 645.258 93.4279C645.258 87.7177 646.879 83.0879 650.12 79.5383C653.515 75.8345 658.685 73.9825 665.63 73.9825C672.574 73.9825 677.667 75.8345 680.908 79.5383C684.303 83.0879 686.001 87.7177 686.001 93.4279C686.001 98.9837 684.303 103.614 680.908 107.317C677.667 110.867 672.574 112.642 665.63 112.642ZM774.89 256.398C763.933 256.398 754.365 254.624 746.185 251.074C738.16 247.37 731.447 242.432 726.045 236.259C720.644 230.085 716.631 223.141 714.008 215.424C711.384 207.554 710.073 199.451 710.073 191.118V186.719C710.073 178.077 711.461 169.82 714.239 161.95C717.017 153.924 721.107 146.825 726.508 140.652C731.91 134.479 738.623 129.618 746.648 126.068C754.828 122.519 764.165 120.744 774.659 120.744C786.079 120.744 796.188 122.982 804.984 127.457C813.781 131.778 820.803 137.874 826.05 145.745C831.297 153.616 834.229 162.644 834.847 172.83H798.503C797.885 167.12 795.57 162.335 791.558 158.477C787.7 154.465 782.067 152.458 774.659 152.458C768.486 152.458 763.316 154.002 759.149 157.088C755.136 160.175 752.127 164.419 750.121 169.82C748.114 175.222 747.111 181.626 747.111 189.034C747.111 195.825 748.037 201.998 749.889 207.554C751.741 212.955 754.673 217.199 758.686 220.286C762.853 223.218 768.254 224.684 774.89 224.684C779.829 224.684 783.996 223.835 787.391 222.138C790.94 220.286 793.718 217.816 795.725 214.73C797.885 211.489 799.197 207.785 799.66 203.618H835.773C835.31 214.112 832.378 223.372 826.976 231.397C821.575 239.268 814.398 245.441 805.447 249.917C796.496 254.238 786.311 256.398 774.89 256.398ZM944.187 252L904.139 192.738H886.314L937.937 125.142H976.827L928.214 188.108L928.677 170.052L985.856 252H944.187ZM854.831 252V83.0107H891.87V252H854.831ZM998.539 252V83.0107H1035.81V252H998.539ZM983.492 110.327V83.0107H1035.81V110.327H983.492ZM1071.33 252V125.142H1108.37V252H1071.33ZM1054.43 152.458V125.142H1108.37V152.458H1054.43ZM1085.68 112.642C1078.73 112.642 1073.56 110.867 1070.17 107.317C1066.93 103.614 1065.31 98.9837 1065.31 93.4279C1065.31 87.7177 1066.93 83.0879 1070.17 79.5383C1073.56 75.8345 1078.73 73.9825 1085.68 73.9825C1092.62 73.9825 1097.72 75.8345 1100.96 79.5383C1104.35 83.0879 1106.05 87.7177 1106.05 93.4279C1106.05 98.9837 1104.35 103.614 1100.96 107.317C1097.72 110.867 1092.62 112.642 1085.68 112.642ZM1186.14 255.935C1168.09 255.935 1153.97 252.231 1143.78 244.824C1133.59 237.416 1128.19 226.999 1127.58 213.572H1160.45C1161.07 217.585 1163.46 221.212 1167.62 224.452C1171.95 227.539 1178.35 229.082 1186.84 229.082C1193.32 229.082 1198.64 228.002 1202.81 225.841C1207.13 223.526 1209.29 220.286 1209.29 216.119C1209.29 212.415 1207.67 209.483 1204.43 207.322C1201.19 205.007 1195.4 203.387 1187.07 202.461L1177.12 201.535C1161.84 199.991 1150.34 195.747 1142.62 188.803C1135.06 181.858 1131.28 172.984 1131.28 162.181C1131.28 153.23 1133.52 145.745 1137.99 139.726C1142.47 133.707 1148.64 129.155 1156.51 126.068C1164.54 122.982 1173.64 121.438 1183.83 121.438C1200.19 121.438 1213.38 125.065 1223.41 132.319C1233.44 139.418 1238.69 149.758 1239.16 163.339H1206.28C1205.67 159.172 1203.51 155.699 1199.8 152.921C1196.1 149.989 1190.62 148.523 1183.37 148.523C1177.66 148.523 1173.1 149.603 1169.71 151.764C1166.31 153.924 1164.61 156.857 1164.61 160.561C1164.61 164.11 1166.08 166.811 1169.01 168.663C1171.95 170.515 1176.73 171.827 1183.37 172.598L1193.32 173.524C1208.91 175.222 1221.02 179.543 1229.66 186.488C1238.31 193.432 1242.63 202.769 1242.63 214.498C1242.63 222.986 1240.31 230.394 1235.68 236.722C1231.05 242.895 1224.49 247.679 1216.01 251.074C1207.52 254.315 1197.56 255.935 1186.14 255.935ZM1319.64 253.62C1306.83 253.62 1296.49 252.077 1288.62 248.991C1280.75 245.75 1274.96 240.425 1271.25 233.018C1267.71 225.456 1265.93 215.27 1265.93 202.461V90.8814H1300.42V203.85C1300.42 209.868 1301.97 214.498 1305.05 217.739C1308.29 220.826 1312.85 222.369 1318.71 222.369H1337.46V253.62H1319.64ZM1246.72 152.227V125.142H1337.46V152.227H1246.72Z" fill="#92A0B7"/>
<defs>
<clipPath id="clip0_2020_14">
<rect width="264.88" height="202.556" fill="white" transform="translate(0 72.7222)"/>
</clipPath>
</defs>
</svg>
