<svg width="495" height="291" viewBox="0 0 495 291" fill="none" xmlns="http://www.w3.org/2000/svg">
<path fill-rule="evenodd" clip-rule="evenodd" d="M266.167 125.52C293.643 106.911 316.235 93.4681 347.897 82.4393C371.579 74.1903 400.294 67.7179 425.541 66.2786L455.468 64.9427C455.605 63.1833 416.052 51.158 412.062 50.1278C364.164 37.7636 305.029 37.4339 257.888 51.2407C254.718 57.288 248.635 65.0572 244.796 71.5392C240.391 78.976 237.259 86.047 233.545 93.7467C232.872 95.1413 232.672 96.2409 232.816 97.1781C233.175 99.5202 235.684 100.85 238.347 103.243C244.03 108.35 260.827 123.803 266.167 125.52Z" fill="white"/>
<path fill-rule="evenodd" clip-rule="evenodd" d="M315.082 26.2281C328.619 26.0121 341.772 26.3337 355.205 28.0341C361.066 28.7763 397.269 32.6619 423.606 43.666C424.958 42.5092 391.558 24.9393 388.768 23.6024C376.29 17.6238 362.098 12.3087 348.815 8.45564C337.097 5.05701 327.417 2.96764 315.636 0.65089C309.836 -0.489707 309.628 -0.39084 305.231 3.12604C295.987 10.5203 283.887 20.221 276.467 29.3175C289.606 28.2531 301.683 26.442 315.082 26.2281Z" fill="white"/>
<path fill-rule="evenodd" clip-rule="evenodd" d="M317.285 247.109C315.449 245.733 327.129 193.19 276.991 185.832C262.976 183.775 246.517 185.233 234.547 193.278C224.936 199.739 218.167 209.874 215.391 225.049C214.722 224.622 213.056 216.477 212.532 215.124C203.27 191.202 179.684 181.33 154.748 184.449C131.406 187.37 111.868 203.761 108.275 226.568L106.833 236.628C104.42 234.658 103.953 231.948 96.4795 227.545C92.1785 225.011 87.4936 223.094 82.777 221.481C72.4129 217.936 61.4963 216.363 50.9598 213.433C46.8858 212.299 40.4539 210.33 38.1137 206.558C35.1342 201.756 37.2943 195.704 41.9094 193.107C52.1235 187.361 64.9849 191.542 75.6434 193.663L75.5792 168.623C3.7089 157.095 -3.70837 205.753 11.7602 223.063C27.2059 240.348 65.1536 239.148 76.5928 248.257C81.4101 252.093 80.5674 259.829 75.7022 263.48C70.8604 267.112 62.7855 267.6 56.9543 267.462C43.7201 267.148 34.1754 263.043 23.1932 256.109C17.6223 252.592 19.6933 250.987 10.843 260.114L0 271.681C1.1995 275.299 22.2693 284.641 26.6928 286.112C50.3604 293.983 92.0906 294.553 106.734 270.993C109.884 265.924 110.374 262.214 111.737 256.573C118.329 265.96 119.125 271.652 133.548 279.436C138.844 282.294 144.012 284.401 149.927 285.488C157.078 286.802 164.158 287.045 170.991 286.694L170.763 264.589C168.994 264.719 162.391 264.54 158.902 263.872C155.463 263.213 152.602 262.082 149.59 260.297C143.824 256.881 140.827 251.575 139.26 245.221L215.101 245.316L215.398 285.347L247.492 285.302L247.505 230.906C247.506 226.355 248.437 222.636 249.383 220.322C257.315 204.411 277.013 206.59 282.59 218.833C284.921 223.95 285.075 226.12 285.078 231.535L285.102 284.997L316.776 285.038L317.128 263.919L317.747 265.598C324.465 288.452 362.24 291.726 380.682 280.038L388.243 274.981L388.388 285.004C397.456 284.872 409.595 285.203 418.995 285.295L419.233 245.387C419.512 245.146 423.045 264.635 446.336 278.659C460.422 287.141 478.643 291.308 495 290.398L495 266.722C437.084 266.645 440.688 193.486 495 195.4V171.668C470.848 171.414 444.474 178.355 428.928 198.279C422.785 206.151 422.106 209.588 418.558 218.697C416.259 212.326 417.071 209.117 412.681 202.445C409.555 197.694 405.961 194.116 400.935 191.367C387.536 183.795 376.945 185.142 361.796 185.262L361.769 208.497C368.446 208.737 374.575 208.38 380.422 211.955C386.072 215.408 388.465 220.332 388.113 225.774C387.072 226.185 369.365 224.57 366.323 224.511C358.566 224.359 351.664 225.101 343.928 226.079C330.858 227.733 322.151 234.464 317.285 247.109ZM363.636 243.025C369.137 242.471 374.492 242.498 380.007 242.821C387.092 243.236 390.182 241.821 388.493 250.608C386.828 259.267 379.462 264.601 371.242 266.349C345.562 271.81 333.555 246.053 363.636 243.025ZM158.129 207.014C181.039 203.148 189.233 227.188 184.59 227.645C181.992 227.901 155.201 227.588 149.966 227.588C137.899 227.588 137.817 228.738 139.79 223.097C142.88 214.265 148.807 208.587 158.129 207.014Z" fill="white"/>
<path fill-rule="evenodd" clip-rule="evenodd" d="M240.622 146.874C244.753 143.205 248.736 139.61 252.948 136.026C257.032 132.548 262.446 129.024 266.167 125.521C260.827 123.805 244.03 108.351 238.347 103.245C235.684 100.852 233.175 99.5216 232.815 97.1795C232.671 96.242 232.872 95.1426 233.544 93.7477C237.259 86.0483 240.39 78.9773 244.795 71.5406C248.635 65.0585 254.717 57.289 257.888 51.242C243.275 53.9906 221.843 63.5421 207.707 69.4226C209.084 73.1189 220.128 85.2 223.421 88.5296C228.418 93.5821 229.498 95.2116 231.256 97.367C222.99 118.85 217.7 139.832 217.537 170.577C218.374 171.153 227.053 160.171 228.734 158.547C232.727 154.687 236.457 150.575 240.622 146.874Z" fill="white"/>
</svg>
