<svg width="1062" height="260" viewBox="0 0 1062 260" fill="none" xmlns="http://www.w3.org/2000/svg">
<path d="M141.335 44.503L151.229 34.6307C170.657 15.244 202.287 14.7641 221.827 34.0391C229.231 41.359 234.152 50.8094 235.897 61.0628C237.643 71.3163 236.125 81.8578 231.558 91.2065C229.367 95.6723 228.629 100.709 229.446 105.614C230.264 110.519 232.596 115.046 236.117 118.564C242.593 112.088 247.725 104.402 251.222 95.946C254.719 87.4899 256.513 78.4291 256.5 69.2812C256.486 60.1335 254.668 51.0777 251.147 42.6316C247.625 34.1854 242.471 26.5142 235.977 20.0564C208.654 -7.05475 164.303 -6.51525 137.055 20.672L42.7525 114.77L34.9999 107.034C15.242 87.3182 15.116 55.0913 35.2225 35.7262C42.6651 28.5802 52.147 23.9153 62.3597 22.3755C72.5723 20.8357 83.0121 22.4968 92.2383 27.1296C96.4494 29.2829 101.235 30.0532 105.911 29.3306C110.587 28.6079 114.915 26.4292 118.276 23.1055L118.516 22.8669C118.591 22.7928 118.65 22.7045 118.691 22.6073C118.731 22.5102 118.752 22.406 118.752 22.3007C118.752 22.1955 118.731 22.0913 118.691 21.9942C118.65 21.897 118.591 21.8088 118.516 21.7346C105.537 9.10837 88.1435 2.01627 70.0168 1.95893C51.8903 1.9016 34.4523 8.88353 21.3929 21.4274C-6.73849 48.5258 -6.63797 93.5879 21.0112 121.178L115.286 215.25L105.272 225.243C85.8432 244.629 54.2121 245.109 34.673 225.834C27.2689 218.515 22.3485 209.064 20.603 198.811C18.8576 188.558 20.3745 178.016 24.9409 168.667C27.1317 164.201 27.8701 159.164 27.053 154.26C26.2357 149.355 23.9037 144.827 20.3828 141.309C13.9078 147.786 8.77512 155.471 5.2778 163.927C1.78046 172.384 -0.0129252 181.444 7.01226e-05 190.592C0.0130655 199.74 1.83218 208.796 5.35354 217.242C8.87489 225.688 14.0295 233.359 20.5227 239.817C47.8449 266.929 92.1976 266.391 119.445 239.203L213.87 144.979L221.652 152.745C241.08 172.131 241.561 203.693 222.244 223.19C214.909 230.579 205.438 235.488 195.163 237.231C184.887 238.973 174.323 237.458 164.954 232.901C160.477 230.714 155.427 229.976 150.51 230.794C145.593 231.61 141.054 233.94 137.529 237.456C144.019 243.917 151.721 249.039 160.195 252.529C168.67 256.019 177.749 257.809 186.918 257.796C196.085 257.782 205.161 255.967 213.624 252.453C222.089 248.939 229.777 243.795 236.248 237.316C263.419 210.053 262.879 165.795 235.633 138.608L141.335 44.503ZM129.364 201.196L56.834 128.822L127.252 58.5568L199.782 130.931L129.364 201.196Z" fill="white"/>
<path d="M314.469 154.537H343.629C344.205 159.433 346.437 163.897 350.325 167.929C354.357 171.817 359.613 174.913 366.093 177.217C372.573 179.377 379.845 180.457 387.909 180.457C395.253 180.457 401.301 179.665 406.053 178.081C410.805 176.497 414.333 174.265 416.637 171.385C418.941 168.505 420.093 165.049 420.093 161.017C420.093 157.129 418.653 154.177 415.773 152.161C412.893 150.001 408.357 148.273 402.165 146.977C395.973 145.537 387.837 144.097 377.757 142.657C369.837 141.505 362.349 139.921 355.293 137.905C348.237 135.745 341.973 133.009 336.501 129.697C331.173 126.385 326.925 122.353 323.757 117.601C320.733 112.705 319.221 106.945 319.221 100.321C319.221 92.113 321.525 84.913 326.133 78.721C330.885 72.529 337.869 67.705 347.085 64.249C356.301 60.793 367.605 59.065 380.997 59.065C401.157 59.065 416.637 63.385 427.437 72.025C438.381 80.521 443.709 92.257 443.421 107.233H415.341C414.765 98.737 411.165 92.617 404.541 88.873C398.061 85.129 389.853 83.257 379.917 83.257C370.701 83.257 363.069 84.625 357.021 87.361C351.117 90.097 348.165 94.777 348.165 101.401C348.165 103.993 348.885 106.297 350.325 108.313C351.765 110.185 354.213 111.841 357.669 113.281C361.125 114.721 365.805 116.089 371.709 117.385C377.613 118.681 384.957 119.977 393.741 121.273C401.949 122.425 409.365 124.009 415.989 126.025C422.757 127.897 428.517 130.417 433.269 133.585C438.165 136.609 441.909 140.497 444.501 145.249C447.093 150.001 448.389 155.833 448.389 162.745C448.389 171.241 446.157 178.657 441.693 184.993C437.373 191.185 430.605 196.009 421.389 199.465C412.317 202.921 400.509 204.649 385.965 204.649C375.597 204.649 366.453 203.569 358.533 201.409C350.613 199.105 343.773 196.081 338.013 192.337C332.253 188.593 327.573 184.489 323.973 180.025C320.373 175.561 317.781 171.097 316.197 166.633C314.757 162.169 314.181 158.137 314.469 154.537Z" fill="white"/>
<path d="M470.062 94.273H498.142V201.625H470.062V94.273ZM548.038 91.897C554.662 91.897 560.782 92.761 566.398 94.489C572.014 96.217 576.91 98.881 581.086 102.481C585.262 106.081 588.502 110.689 590.806 116.305C593.11 121.777 594.262 128.329 594.262 135.961V201.625H566.182V140.929C566.182 131.857 563.95 125.233 559.486 121.057C555.166 116.737 548.038 114.577 538.102 114.577C530.614 114.577 523.846 116.017 517.798 118.897C511.75 121.777 506.854 125.449 503.11 129.913C499.366 134.233 497.206 138.769 496.63 143.521L496.414 132.505C497.134 127.465 498.79 122.569 501.382 117.817C503.974 113.065 507.43 108.745 511.75 104.857C516.214 100.825 521.47 97.657 527.518 95.353C533.566 93.049 540.406 91.897 548.038 91.897Z" fill="white"/>
<path d="M652.011 47.185V71.809H619.395V47.185H652.011ZM621.555 94.273H649.635V201.625H621.555V94.273Z" fill="white"/>
<path d="M670.064 94.273H753.44V116.089H670.064V94.273ZM697.712 64.897H725.792V201.625H697.712V64.897Z" fill="white"/>
<path d="M822.076 204.001C811.42 204.001 801.7 201.697 792.916 197.089C784.276 192.337 777.364 185.785 772.18 177.433C767.14 168.937 764.62 159.145 764.62 148.057C764.62 136.681 767.212 126.817 772.396 118.465C777.58 110.113 784.564 103.633 793.348 99.025C802.276 94.273 812.356 91.897 823.588 91.897C835.972 91.897 845.908 94.417 853.396 99.457C861.028 104.353 866.572 111.049 870.028 119.545C873.484 128.041 875.212 137.545 875.212 148.057C875.212 154.393 874.204 160.873 872.188 167.497C870.172 173.977 867.076 180.025 862.9 185.641C858.724 191.113 853.252 195.577 846.484 199.033C839.716 202.345 831.58 204.001 822.076 204.001ZM831.148 182.401C839.644 182.401 846.988 180.961 853.18 178.081C859.372 175.201 864.124 171.169 867.436 165.985C870.748 160.801 872.404 154.825 872.404 148.057C872.404 140.713 870.676 134.521 867.22 129.481C863.908 124.297 859.156 120.409 852.964 117.817C846.916 115.081 839.644 113.713 831.148 113.713C819.196 113.713 809.908 116.881 803.284 123.217C796.66 129.409 793.348 137.689 793.348 148.057C793.348 154.969 794.932 161.017 798.1 166.201C801.268 171.241 805.66 175.201 811.276 178.081C817.036 180.961 823.66 182.401 831.148 182.401ZM872.404 94.273H900.484V201.625H874.348C874.348 201.625 874.132 200.257 873.7 197.521C873.412 194.641 873.124 191.041 872.836 186.721C872.548 182.401 872.404 178.153 872.404 173.977V94.273Z" fill="white"/>
<path d="M1004.09 204.217C994.585 204.217 986.45 202.561 979.682 199.249C973.058 195.793 967.658 191.329 963.482 185.857C959.306 180.241 956.209 174.121 954.193 167.497C952.177 160.873 951.169 154.393 951.169 148.057C951.169 140.137 952.105 132.793 953.977 126.025C955.993 119.257 959.09 113.353 963.266 108.313C967.442 103.129 972.842 99.097 979.466 96.217C986.234 93.337 994.441 91.897 1004.09 91.897C1014.89 91.897 1024.61 94.273 1033.25 99.025C1041.89 103.777 1048.73 110.401 1053.77 118.897C1058.95 127.249 1061.55 136.969 1061.55 148.057C1061.55 159.433 1058.95 169.369 1053.77 177.865C1048.59 186.217 1041.67 192.697 1033.03 197.305C1024.39 201.913 1014.75 204.217 1004.09 204.217ZM995.018 182.401C1002.65 182.401 1009.27 180.961 1014.89 178.081C1020.65 175.201 1025.04 171.241 1028.07 166.201C1031.23 161.017 1032.82 154.969 1032.82 148.057C1032.82 137.689 1029.51 129.337 1022.88 123.001C1016.4 116.665 1007.11 113.497 995.018 113.497C987.386 113.497 980.401 114.865 974.065 117.601C967.873 120.337 962.978 124.297 959.378 129.481C955.778 134.521 953.977 140.713 953.977 148.057C953.977 154.969 955.633 161.017 958.945 166.201C962.257 171.241 967.009 175.201 973.201 178.081C979.393 180.961 986.666 182.401 995.018 182.401ZM925.898 94.273H952.682L953.977 122.785V244.825H925.898V94.273Z" fill="white"/>
</svg>
