<svg width="439" height="242" viewBox="0 0 439 242" fill="none" xmlns="http://www.w3.org/2000/svg">
<path d="M202.576 0.678143C158.526 7.39253 123.078 35.4708 106.727 76.4896C102.579 86.9885 100.26 96.7549 98.6738 110.489C97.2095 123.734 92.2066 134.294 82.9329 144.061C72.927 154.438 63.2262 159.748 29.487 173.177C1.17773 184.469 -0.835642 185.446 0.20155 187.155C1.29975 188.925 16.6136 186.728 41.0791 181.295C79.2112 172.81 123.627 160.786 195.438 139.422C226.431 130.205 229.604 129.289 239.976 126.115C321.365 101.516 368.222 86.0729 404.706 71.9116C430.148 62.0232 440.276 56.9569 438.873 54.6984C438.385 53.9049 437.042 54.088 421.179 57.8114C395.494 63.8544 380.912 65.9908 364.439 65.9297C354.982 65.9297 351.749 65.6856 347.051 64.6479C334.299 61.9011 324.782 56.5296 316.85 47.6178C308.309 38.0956 297.51 27.5967 292.141 23.6291C277.803 13.0082 260.781 5.43925 243.088 1.77686C236.803 0.495024 233.631 0.250864 221.978 0.0677447C212.155 -0.115375 206.603 0.0677447 202.576 0.678143ZM233.814 44.6879C256.998 49.0827 277.681 64.4648 288.053 85.0352L289.7 88.2093L288.358 88.6366C287.443 88.8807 286.833 88.7586 286.528 88.2093C276.583 71.2402 266.699 61.4128 252.239 54.2711C241.318 48.9607 231.861 46.7632 219.537 46.7632C180.673 46.7632 148.947 76.0623 145.775 114.762C145.469 118.485 145.408 123.673 145.652 126.359C146.019 130.937 146.019 131.181 144.676 131.792C143.883 132.158 143.09 132.28 142.968 132.097C141.992 131.12 141.931 116.837 142.907 110.306C147.666 78.3208 170.118 53.4166 201.295 45.6035C211.606 43.0398 223.137 42.6736 233.814 44.6879ZM236.62 50.6087C252.3 54.7594 265.784 63.305 275.851 75.574C278.474 78.8091 284.209 88.0872 284.209 89.1859C284.209 89.6132 280.731 90.895 276.156 92.2379C271.702 93.4587 263.526 95.8393 257.974 97.4263C252.422 99.0744 240.22 102.615 230.824 105.361C221.429 108.108 209.104 111.771 203.369 113.602C197.695 115.372 186.164 118.973 177.744 121.537C169.386 124.101 159.563 127.153 155.963 128.312C152.364 129.472 149.008 130.388 148.459 130.388C147.666 130.388 147.544 129.106 147.544 121.903C147.544 117.203 147.971 111.16 148.459 108.291C152.303 86.195 167.617 65.7466 187.506 56.2244C199.647 50.3646 208.25 48.5334 221.673 48.8996C228.933 49.0827 232.044 49.449 236.62 50.6087Z" fill="white"/>
<path d="M337.289 102.187C336.801 102.371 327.588 105.361 316.85 108.719L297.327 114.945L296.9 122.697C296.716 126.97 296.045 132.646 295.496 135.393C289.822 163.471 269.994 185.812 243.21 194.419C214.717 203.514 183.663 195.517 163.224 173.726C159.197 169.453 153.035 161.152 152.303 159.077C152.181 158.649 150.899 158.771 148.154 159.626C145.958 160.236 136.501 162.922 127.105 165.547C117.709 168.171 109.778 170.491 109.534 170.674C109.229 170.918 110.327 173.543 111.852 176.534C133.572 218.224 177.317 243.739 223.808 241.908C255.29 240.626 283.355 228.418 305.258 206.382C330.151 181.417 343.207 146.38 340.401 112.259C339.485 101.394 339.485 101.272 337.289 102.187Z" fill="white"/>
<path d="M291.836 117.081C291.714 117.508 291.469 121.171 291.347 125.199C290.31 150.653 273.776 175.191 250.409 185.934C239.244 191.061 231.434 192.832 219.537 192.832C207.457 192.832 197.39 190.451 186.896 185.141C177.073 180.196 165.298 169.881 159.807 161.335C157.428 157.673 155.475 156.086 155.475 157.917C155.475 158.954 161.332 167.134 165.054 171.284C169.996 176.778 178.233 182.882 185.798 186.728C196.963 192.404 205.2 194.48 217.402 194.846C230.458 195.151 241.196 192.832 252.788 187.033C272.922 177.022 287.626 157.978 292.08 136.065C293.666 128.312 294.215 116.349 292.995 116.349C292.507 116.349 292.019 116.715 291.836 117.081Z" fill="white"/>
</svg>
