<svg width="489" height="183" viewBox="0 0 489 183" fill="none" xmlns="http://www.w3.org/2000/svg">
<path fill-rule="evenodd" clip-rule="evenodd" d="M73.4033 21.6367C73.5339 21.3761 75.1007 19.5513 76.1453 19.5513C77.1898 19.5513 77.7121 20.8547 77.7121 21.6367C77.9732 23.3312 78.3649 25.6773 78.8872 29.5876C79.8012 35.3226 80.9763 41.8397 80.9763 41.8397C74.9701 43.0128 60.6077 46.4017 55.7767 47.7051C60.8688 39.2329 70.2697 25.4167 73.4033 21.6367ZM114.271 47.0534C123.28 46.6624 132.812 46.532 133.595 46.532C135.815 46.532 137.773 46.7927 138.165 47.7051C138.557 49.0085 137.643 50.5726 135.945 51.6153C135.554 51.876 130.2 55.3953 124.325 59.3055C115.446 65.3012 104.348 72.6004 104.348 72.6004C104.478 72.8611 100.17 53.1795 99.2557 47.9658C99.2557 48.0961 106.698 47.4444 114.271 47.0534ZM55.9073 105.055C55.9073 105.055 34.8859 87.5897 33.7108 86.6773C33.7108 86.6773 47.0287 61.782 51.2068 55.3953C53.8182 54.7436 73.2728 51.094 82.5431 50.0513C82.5431 50.0513 85.285 65.1709 89.3326 82.5064C89.3326 82.5064 62.1745 100.494 55.9073 105.055ZM99.3863 121.088C96.1221 109.878 92.8579 97.4957 92.8579 97.4957L67.7889 115.222C67.7889 115.222 96.7749 140.639 102.389 145.592C102.52 145.722 103.695 146.635 104.217 146.895C105.262 147.417 106.045 147.156 106.437 146.504C106.829 145.852 106.698 144.679 106.437 143.506C104.87 138.944 101.998 129.82 99.3863 121.088ZM20.0012 130.733C27.1824 125.91 49.3789 109.878 49.3789 109.878C45.5924 106.62 30.1854 93.4551 30.1854 93.4551C30.1854 93.4551 17.7815 119.654 14.6479 126.301C14.5173 126.562 13.2117 129.429 13.4728 130.994C13.7339 131.776 14.3868 133.731 17.651 132.167C18.0427 132.036 19.6095 130.994 20.0012 130.733ZM13.0811 70.2542C16.2147 72.7307 28.8798 82.767 28.8798 82.767C30.7077 79.6388 30.5772 79.3781 35.0165 71.8183C36.8444 68.5598 39.5863 64.2585 43.6339 57.22C28.0964 61 16.737 65.0406 14.1256 65.9529C13.9951 65.9529 13.0811 66.344 12.82 66.6047C12.1671 66.9957 11.906 67.517 11.7754 68.0384C11.6448 69.2115 12.6894 69.9935 13.0811 70.2542ZM125.369 143.897C122.758 136.989 119.624 128.517 117.013 119.784C112.051 103.231 107.873 87.329 108.004 87.329C111.268 85.2435 139.993 65.6923 160.753 53.8312C161.014 53.7008 167.151 50.1816 167.804 46.0107C167.934 44.8376 167.804 43.6645 167.412 42.6218C166.368 39.4936 163.756 36.7564 156.314 36.235C150.569 35.844 140.385 35.1923 129.156 35.844C118.188 36.235 106.568 37.4081 97.8195 38.8419C97.8195 38.8419 94.2942 17.4658 93.119 8.7329C92.9885 8.21153 92.4662 4.82265 91.5522 3.38889C90.6383 1.95513 89.202 0.651709 86.7212 0.130342C86.0684 -1.26246e-07 85.5461 0 85.0239 0H84.8933C83.1959 0 81.7597 0.521367 80.8457 1.30342C79.54 2.34615 77.7121 4.95299 77.1898 5.6047C71.5754 13.4252 55.9073 36.4957 48.2038 49.6602C48.2038 49.6602 23.7876 57.0897 9.03349 63.3461C4.59419 65.1709 4.20249 67.3867 4.07192 68.5598C3.94135 69.4722 4.07192 71.688 7.46668 74.5555C11.7754 78.2051 25.3544 89.4145 25.3544 89.4145C20.5234 96.9743 2.11341 134.643 0.28546 145.07C-0.23681 148.068 -0.236811 151.196 1.98284 154.064C3.41908 155.889 5.7693 157.062 8.38065 157.192C11.5143 157.192 15.823 153.934 17.651 152.63C32.4051 142.073 60.9994 120.175 60.9994 120.175C71.8365 129.82 94.6859 150.675 106.698 161.885C108.134 163.188 112.574 167.359 116.882 167.359C125.108 167.62 127.85 160.581 128.242 158.105C129.025 152.37 126.153 146.113 125.369 143.897Z" fill="white"/>
<path d="M429.2 97.7565H411.573V40.9275H430.114C432.725 40.9275 435.076 41.0578 437.426 41.4488C439.776 41.8398 441.865 42.2309 443.824 42.8826C445.782 43.5343 447.61 44.3163 449.307 45.2287C451.005 46.1411 452.572 47.3142 453.877 48.4873C455.183 49.7907 456.489 51.0941 457.533 52.5279C458.578 53.9616 459.492 55.6561 460.145 57.3505C460.797 59.045 461.32 60.8697 461.711 62.8249C462.103 64.78 462.234 66.7351 462.234 68.8206C462.234 71.0364 461.973 72.9915 461.581 74.9467C461.189 76.9018 460.667 78.7266 459.883 80.5514C459.1 82.3761 458.186 83.9402 457.142 85.5043C456.097 87.0684 454.791 88.3719 453.355 89.6753C451.919 90.9787 450.352 92.0214 448.655 93.0642C446.957 93.9766 444.999 94.889 443.04 95.5407C440.951 96.1924 438.862 96.7137 436.512 97.1048C434.162 97.4958 431.811 97.7565 429.2 97.7565ZM423.586 50.7031V87.8505H429.461C431.289 87.8505 432.987 87.7202 434.553 87.4595C436.12 87.1988 437.556 86.8078 438.862 86.2864C440.168 85.765 441.343 85.2437 442.257 84.4616C443.301 83.8099 444.215 83.0279 444.999 82.1155C445.782 81.2031 446.435 80.2907 447.088 79.3783C447.741 78.4659 448.132 77.2928 448.524 76.1197C448.916 74.9467 449.177 73.7736 449.307 72.6005C449.438 71.4274 449.569 70.124 449.569 68.9509C449.569 66.9958 449.438 65.3014 449.046 63.7373C448.655 62.1732 448.132 60.6091 447.349 59.3056C446.566 58.0022 445.652 56.6988 444.607 55.6561C443.432 54.6133 442.126 53.7009 440.69 52.9189C439.254 52.1368 437.556 51.6155 435.598 51.2245C433.639 50.8334 431.681 50.5727 429.331 50.5727L423.586 50.7031Z" fill="white"/>
<path d="M387.288 97.7565V40.9275H399.3V97.7565H387.288Z" fill="white"/>
<path d="M372.011 86.2864C373.056 85.8954 374.101 85.374 375.014 84.7223L375.798 84.3313L376.059 85.2437L378.932 93.1945L379.193 93.8462L378.54 94.1069C377.495 94.6283 376.451 95.1496 375.276 95.671C374.231 96.062 373.187 96.5834 372.142 96.8441C371.097 97.1048 370.053 97.4958 369.008 97.6261C367.964 97.8868 366.919 98.0172 365.875 98.1475C364.83 98.2778 363.916 98.4082 362.872 98.4082C361.827 98.4082 360.913 98.5385 359.869 98.5385C357.518 98.5385 355.299 98.4082 353.079 98.0172C350.99 97.6261 348.901 97.1048 347.073 96.4531C345.245 95.8013 343.548 94.889 341.981 93.9766C340.414 92.9338 338.978 91.8911 337.803 90.5877C336.497 89.2843 335.452 87.8505 334.539 86.4167C333.625 84.8526 332.711 83.2885 332.188 81.5941C331.535 79.8996 331.013 78.0749 330.752 76.1197C330.491 74.1646 330.23 72.2095 330.23 70.124C330.23 68.4296 330.36 66.8655 330.621 65.3014C330.883 63.7373 331.274 62.1732 331.666 60.7394C332.188 59.3056 332.711 57.8719 333.363 56.4381C334.016 55.1347 334.8 53.8313 335.714 52.5279C336.628 51.3548 337.542 50.1817 338.717 49.139C339.761 48.0963 340.936 47.0535 342.242 46.1411C343.548 45.2287 344.853 44.4467 346.29 43.795C347.726 43.1433 349.162 42.4916 350.859 41.9702C352.426 41.4488 354.124 41.0578 355.821 40.9275C357.518 40.6668 359.346 40.5364 361.305 40.5364C362.872 40.5364 364.439 40.6668 365.875 40.7971C367.311 40.9275 368.747 41.0578 370.053 41.3185C371.359 41.5792 372.534 41.8398 373.709 42.2309C374.884 42.6219 375.798 42.8826 376.842 43.2736L377.365 43.5343V54.7437L376.19 54.092C375.145 53.5706 374.101 53.0492 372.925 52.6582C371.75 52.2672 370.575 51.8762 369.4 51.4851C368.225 51.2245 367.05 50.9638 365.744 50.8334C364.439 50.7031 363.133 50.5727 361.827 50.5727C360.26 50.5727 358.824 50.7031 357.518 50.9638C356.213 51.2245 354.907 51.6155 353.732 52.1368C352.557 52.6582 351.512 53.1796 350.468 53.9616C349.554 54.6133 348.64 55.3954 347.856 56.3078C347.073 57.2202 346.42 58.1326 345.767 59.1753C345.245 60.218 344.723 61.2608 344.331 62.4338C343.939 63.6069 343.678 64.78 343.417 66.0834C343.287 67.3868 343.156 68.5599 343.156 69.9937C343.156 71.4274 343.287 72.7308 343.417 74.0343C343.678 75.3377 343.939 76.5108 344.331 77.6838C344.723 78.8569 345.245 79.8996 345.898 80.9424C346.551 81.9851 347.204 82.8975 347.987 83.6796C348.77 84.4616 349.684 85.2437 350.598 85.8954C351.512 86.5471 352.557 87.0684 353.732 87.5898C354.907 87.9808 356.082 88.3719 357.257 88.6325C358.563 88.8932 359.869 89.0236 361.305 89.0236C362.611 89.0236 363.916 88.8932 365.222 88.7629C366.528 88.6325 367.572 88.3719 368.747 87.9808C369.792 87.1988 370.836 86.8078 372.011 86.2864Z" fill="white"/>
<path d="M308.556 97.7565V40.9275H320.568V97.7565H308.556Z" fill="white"/>
<path d="M243.011 97.7565V40.9275H254.501L254.762 41.1881L279.178 71.2971C279.831 72.2095 280.484 72.9915 281.006 73.6432C281.528 74.295 282.05 74.9467 282.703 75.8591C283.225 76.5108 283.748 77.2928 284.27 77.9445C284.27 77.2928 284.27 76.5108 284.27 75.7287C284.27 73.9039 284.27 72.4702 284.27 71.0364V40.9275H296.413V97.7565H285.706L285.445 97.4958L259.984 66.0834C259.332 65.3014 258.809 64.5193 258.156 63.8676C257.634 63.0856 256.981 62.4338 256.459 61.6518C255.937 61.0001 255.415 60.218 254.892 59.5663L254.762 59.436C254.762 59.9574 254.762 60.4787 254.762 61.0001C254.762 62.6945 254.762 64.1283 254.762 65.562V97.7565H243.011Z" fill="white"/>
<path d="M214.025 97.8868C211.674 98.2778 209.324 98.5385 206.582 98.5385C203.84 98.5385 201.36 98.2778 199.009 97.8868C196.659 97.4958 194.57 96.7137 192.742 95.8013C190.784 94.889 189.217 93.7159 187.78 92.2821C186.344 90.8484 185.169 89.2843 184.255 87.3291C183.863 86.5471 183.472 85.765 183.211 84.983C182.949 84.0706 182.688 83.2885 182.558 82.2458C182.427 81.3334 182.297 80.421 182.166 79.3783C182.036 78.3355 182.036 77.2928 182.036 76.2501V40.9275H194.048V75.5984C194.048 76.2501 194.048 77.0321 194.178 77.6838C194.309 78.3355 194.309 78.9873 194.439 79.5086C194.57 80.1603 194.701 80.6817 194.962 81.2031C195.223 81.7244 195.353 82.2458 195.615 82.6368C196.137 83.5492 196.659 84.3313 197.312 85.1133C197.965 85.765 198.748 86.4167 199.662 86.9381C200.576 87.4595 201.621 87.8505 202.796 88.1112C203.971 88.3719 205.277 88.5022 206.582 88.5022C208.018 88.5022 209.194 88.3719 210.369 88.1112C211.544 87.8505 212.588 87.4595 213.502 86.9381C214.416 86.4167 215.2 85.8954 215.853 85.1133C216.505 84.3313 217.158 83.5492 217.55 82.6368C218.072 81.7244 218.464 80.6817 218.594 79.5086C218.856 78.3355 218.986 77.0321 218.986 75.468V40.9275H230.998V76.2501C230.998 77.2928 230.998 78.3355 230.868 79.3783C230.737 80.421 230.607 81.3334 230.476 82.2458C230.346 83.1582 230.084 84.0706 229.823 84.983C229.562 85.8954 229.17 86.6774 228.779 87.3291C227.865 89.1539 226.69 90.8484 225.253 92.1518C223.817 93.5855 222.12 94.6283 220.292 95.671C218.464 96.7137 216.375 97.3654 214.025 97.8868Z" fill="white"/>
<path fill-rule="evenodd" clip-rule="evenodd" d="M201.36 137.771C199.532 139.596 196.79 140.769 192.873 140.769C189.086 140.769 186.605 139.727 184.908 138.162C182.688 135.947 182.166 132.818 182.166 129.951V111.703H185.953V129.821C185.953 131.776 186.475 133.991 187.911 135.425C188.956 136.598 190.653 137.25 193.003 137.25C195.615 137.25 197.442 136.598 198.487 135.425C199.662 134.122 200.184 132.167 200.184 130.081V111.703H204.101V130.342C204.101 133.209 203.187 135.947 201.36 137.771Z" fill="white"/>
<path fill-rule="evenodd" clip-rule="evenodd" d="M222.12 140.248V127.865C222.12 125.519 221.728 122.782 218.725 122.782C216.505 122.782 214.286 124.216 212.719 125.65V140.248H208.932V119.784H212.197L212.719 122.13C215.069 120.436 217.158 119.263 220.031 119.263C222.903 119.263 226.037 121.348 226.037 126.562V140.248H222.12Z" fill="white"/>
<path fill-rule="evenodd" clip-rule="evenodd" d="M230.476 140.248V119.784H234.263V140.248H230.476ZM234.915 113.397C234.915 114.831 233.74 116.004 232.304 116.004C230.868 116.004 229.693 114.831 229.693 113.397C229.693 112.094 230.868 110.921 232.304 110.921C233.74 110.921 234.915 111.964 234.915 113.397Z" fill="white"/>
<path fill-rule="evenodd" clip-rule="evenodd" d="M248.233 140.378H245.23L237.266 119.784H241.183L246.797 135.425H246.928L252.934 119.784H256.72L248.233 140.378Z" fill="white"/>
<path fill-rule="evenodd" clip-rule="evenodd" d="M266.252 122.391C263.379 122.391 261.551 124.868 261.551 127.865H270.691C270.691 125.259 269.255 122.391 266.252 122.391ZM261.551 130.863C261.551 134.513 263.901 137.511 268.08 137.511C269.908 137.511 271.735 136.859 273.041 136.077L274.086 138.684C272.258 139.987 269.646 140.769 267.296 140.769C260.637 140.769 257.504 135.556 257.504 129.821C257.504 124.086 260.898 119.393 266.121 119.393C271.344 119.393 274.608 123.564 274.608 129.951V130.994L261.551 130.863Z" fill="white"/>
<path fill-rule="evenodd" clip-rule="evenodd" d="M288.97 123.564C288.448 123.303 287.665 123.043 286.881 123.043C285.706 123.043 283.878 123.955 282.573 125.259V140.248H278.656V119.784H281.92L282.442 122.13C285.053 119.784 286.62 119.263 288.187 119.263C289.101 119.263 290.015 119.654 290.537 119.915L288.97 123.564Z" fill="white"/>
<path fill-rule="evenodd" clip-rule="evenodd" d="M297.327 140.769C294.193 140.769 292.235 139.987 290.668 139.075L292.104 136.207C293.279 136.989 295.107 137.771 297.327 137.771C299.677 137.771 301.374 136.729 301.374 135.034C301.374 130.472 291.973 132.167 291.973 124.998C291.973 121.87 294.324 119.393 299.155 119.393C301.505 119.393 303.202 119.915 304.508 120.436V123.694C302.941 123.043 301.374 122.391 299.155 122.391C297.196 122.391 295.629 123.043 295.629 124.737C295.629 128.908 305.161 127.735 305.161 134.513C305.291 138.944 301.635 140.769 297.327 140.769Z" fill="white"/>
<path fill-rule="evenodd" clip-rule="evenodd" d="M309.078 140.248V119.784H312.864V140.248H309.078ZM313.648 113.397C313.648 114.831 312.473 116.004 311.036 116.004C309.6 116.004 308.425 114.831 308.425 113.397C308.425 112.094 309.6 110.921 311.036 110.921C312.473 110.921 313.648 111.964 313.648 113.397Z" fill="white"/>
<path fill-rule="evenodd" clip-rule="evenodd" d="M330.883 122.912C330.099 122.652 329.446 122.521 328.01 122.521C324.093 122.521 320.829 125.389 320.829 130.081C320.829 134.383 323.31 137.511 328.271 137.511C329.185 137.511 330.36 137.25 330.883 136.989V122.912ZM327.749 140.769C321.873 140.769 317.042 137.38 317.042 130.342C317.042 123.955 321.743 119.393 327.88 119.393C329.185 119.393 330.23 119.524 331.013 119.654V109.748H334.93V139.336C333.233 139.987 330.752 140.769 327.749 140.769Z" fill="white"/>
<path fill-rule="evenodd" clip-rule="evenodd" d="M350.729 130.603L346.942 130.733C343.548 130.863 342.242 132.036 342.242 134.122C342.242 136.077 343.548 137.641 346.028 137.641C348.379 137.641 349.945 136.468 350.729 135.686V130.603ZM351.773 140.248L350.99 138.293C349.684 139.466 347.726 140.639 344.723 140.639C341.197 140.639 338.325 138.162 338.325 134.252C338.325 130.342 341.328 127.735 346.681 127.474L350.729 127.344V126.562C350.729 123.434 348.901 122.261 346.42 122.261C343.939 122.261 342.242 123.173 341.067 124.086L339.631 121.479C342.242 119.654 344.462 119.133 347.204 119.133C351.512 119.133 354.646 120.957 354.646 126.171V133.079C354.646 137.902 354.776 139.336 355.038 140.118H351.773V140.248Z" fill="white"/>
<path fill-rule="evenodd" clip-rule="evenodd" d="M372.142 122.912C371.359 122.652 370.706 122.521 369.27 122.521C365.352 122.521 362.088 125.389 362.088 130.081C362.088 134.383 364.569 137.511 369.531 137.511C370.445 137.511 371.62 137.25 372.142 136.989V122.912ZM368.878 140.769C363.002 140.769 358.171 137.38 358.171 130.342C358.171 123.955 362.872 119.393 369.008 119.393C370.314 119.393 371.359 119.524 372.142 119.654V109.748H376.059V139.336C374.492 139.987 372.011 140.769 368.878 140.769Z" fill="white"/>
<path fill-rule="evenodd" clip-rule="evenodd" d="M388.202 122.391C385.329 122.391 383.632 124.868 383.632 127.865H392.772C392.641 125.259 391.205 122.391 388.202 122.391ZM383.632 130.863C383.632 134.513 385.982 137.511 390.16 137.511C391.988 137.511 393.816 136.859 395.122 136.077L396.166 138.684C394.338 139.987 391.727 140.769 389.377 140.769C382.718 140.769 379.584 135.556 379.584 129.821C379.584 124.086 382.979 119.393 388.202 119.393C393.425 119.393 396.689 123.564 396.689 129.951V130.994C396.689 130.863 383.632 130.863 383.632 130.863Z" fill="white"/>
<path fill-rule="evenodd" clip-rule="evenodd" d="M195.484 182.479C186.867 182.479 181.513 176.353 181.513 168.141C181.513 159.929 187.389 153.282 196.137 153.282C199.401 153.282 202.012 154.064 203.449 154.977V158.756C201.229 157.453 199.14 156.671 196.137 156.671C189.739 156.671 185.691 161.624 185.691 167.88C185.691 174.137 189.608 179.09 196.006 179.09C198.487 179.09 200.837 178.308 202.796 177.265L203.971 180.263C201.098 181.827 198.226 182.479 195.484 182.479Z" fill="white"/>
<path fill-rule="evenodd" clip-rule="evenodd" d="M287.273 164.1C284.401 164.1 282.703 166.577 282.703 169.575H291.843C291.712 166.968 290.276 164.1 287.273 164.1ZM282.703 172.573C282.703 176.222 285.053 179.22 289.101 179.22C290.929 179.22 292.757 178.568 294.063 177.786L295.107 180.393C293.279 181.697 290.668 182.479 288.318 182.479C281.659 182.479 278.525 177.265 278.525 171.53C278.525 165.795 281.92 161.103 287.142 161.103C292.365 161.103 295.629 165.274 295.629 171.66V172.703L282.703 172.573Z" fill="white"/>
<path fill-rule="evenodd" clip-rule="evenodd" d="M212.197 155.107C212.197 156.541 211.022 157.714 209.585 157.714C208.149 157.714 206.974 156.541 206.974 155.107C206.974 153.803 208.149 152.63 209.585 152.63C211.022 152.63 212.197 153.673 212.197 155.107Z" fill="white"/>
<path d="M211.544 161.494H207.757V181.957H211.544V161.494Z" fill="white"/>
<path fill-rule="evenodd" clip-rule="evenodd" d="M229.17 164.752C228.387 164.491 227.734 164.361 226.298 164.361C222.381 164.361 219.117 167.229 219.117 171.921C219.117 176.222 221.598 179.35 226.559 179.35C227.473 179.35 228.648 179.09 229.17 178.829V164.752ZM226.037 182.479C220.161 182.479 215.33 179.09 215.33 172.051C215.33 165.665 220.031 161.103 226.167 161.103C227.473 161.103 228.518 161.233 229.301 161.363V151.457H233.087V180.915C231.521 181.827 229.17 182.479 226.037 182.479Z" fill="white"/>
<path fill-rule="evenodd" clip-rule="evenodd" d="M452.833 181.957L452.049 179.872C450.483 181.175 448.263 182.348 445.521 182.348C442.779 182.348 439.123 180.915 439.123 174.919V161.624H443.04V174.658C443.04 177.786 444.346 179.22 446.827 179.22C449.177 179.22 450.874 177.786 451.788 176.874V161.624H455.575V174.397C455.575 179.741 455.705 181.045 455.966 181.957H452.833Z" fill="white"/>
<path fill-rule="evenodd" clip-rule="evenodd" d="M431.159 172.312L427.503 172.442C424.108 172.573 422.802 173.615 422.802 175.701C422.802 177.656 424.108 179.22 426.589 179.22C429.069 179.22 430.506 178.047 431.289 177.265L431.159 172.312ZM432.203 182.088L431.42 180.132C430.114 181.306 428.156 182.479 425.283 182.479C421.888 182.479 418.885 180.002 418.885 176.092C418.885 172.182 421.888 169.575 427.242 169.444L431.159 169.314V168.532C431.159 165.404 429.331 164.231 426.98 164.231C424.63 164.231 422.802 165.143 421.627 166.056L420.191 163.449C422.802 161.624 425.022 161.103 427.633 161.103C431.942 161.103 434.945 162.927 434.945 168.141V175.049C434.945 179.872 435.076 181.306 435.337 182.088H432.203Z" fill="white"/>
<path fill-rule="evenodd" clip-rule="evenodd" d="M473.724 171.791C473.724 176.353 475.813 179.35 479.469 179.35C483.124 179.35 485.083 176.222 485.083 171.791C485.083 167.359 482.994 164.231 479.338 164.231C475.682 164.231 473.724 167.229 473.724 171.791ZM486.258 163.84C488.086 165.665 489 168.532 489 171.791C489 175.049 487.955 177.917 486.128 179.741C484.43 181.436 482.08 182.479 479.338 182.479C476.596 182.479 474.376 181.566 472.679 180.002C470.721 178.177 469.807 175.179 469.807 171.921C469.807 168.662 470.851 165.795 472.679 163.84C474.376 162.145 476.596 161.103 479.338 161.103C482.08 161.103 484.561 162.015 486.258 163.84Z" fill="white"/>
<path fill-rule="evenodd" clip-rule="evenodd" d="M249.017 172.312L245.361 172.442C241.966 172.573 240.66 173.615 240.66 175.701C240.66 177.656 241.966 179.22 244.447 179.22C246.797 179.22 248.233 178.047 249.147 177.265L249.017 172.312ZM250.061 181.957L249.278 180.002C247.972 181.175 246.014 182.348 243.141 182.348C239.746 182.348 236.743 179.872 236.743 175.962C236.743 172.051 239.746 169.444 245.1 169.314L249.017 169.184V168.402C249.017 165.274 247.189 164.1 244.839 164.1C242.488 164.1 240.66 165.013 239.485 165.925L238.049 163.318C240.66 161.494 242.88 160.972 245.491 160.972C249.8 160.972 252.803 162.797 252.803 168.011V174.919C252.803 179.741 252.934 181.175 253.195 181.957H250.061Z" fill="white"/>
<path fill-rule="evenodd" clip-rule="evenodd" d="M463.017 182.479C460.275 182.479 459.1 180.784 459.1 178.438V151.457H462.886V176.744C462.886 178.568 463.278 178.959 464.453 178.959C464.714 178.959 465.106 178.959 465.628 178.829L466.151 181.566C465.106 182.218 464.062 182.479 463.017 182.479Z" fill="white"/>
<path fill-rule="evenodd" clip-rule="evenodd" d="M270.691 164.752C269.908 164.491 269.255 164.361 267.818 164.361C263.901 164.361 260.637 167.229 260.637 171.921C260.637 176.222 263.118 179.35 268.08 179.35C268.994 179.35 270.169 179.09 270.691 178.829V164.752ZM267.557 182.479C261.682 182.479 256.851 179.09 256.851 172.051C256.851 165.665 261.551 161.103 267.688 161.103C268.994 161.103 270.038 161.233 270.822 161.363V151.457H274.608V180.915C273.041 181.697 270.56 182.479 267.557 182.479Z" fill="white"/>
<path fill-rule="evenodd" clip-rule="evenodd" d="M338.586 164.1C335.714 164.1 334.016 166.577 334.016 169.575H343.156C343.156 166.968 341.589 164.1 338.586 164.1ZM334.016 172.573C334.016 176.222 336.366 179.22 340.545 179.22C342.373 179.22 344.201 178.568 345.506 177.786L346.551 180.393C344.723 181.697 342.111 182.479 339.761 182.479C333.102 182.479 329.969 177.265 329.969 171.53C329.969 165.795 333.363 161.103 338.586 161.103C343.809 161.103 347.073 165.274 347.073 171.66V172.703L334.016 172.573Z" fill="white"/>
<path fill-rule="evenodd" clip-rule="evenodd" d="M322.004 164.752C321.221 164.491 320.568 164.361 319.132 164.361C315.215 164.361 311.95 167.229 311.95 171.921C311.95 176.222 314.431 179.35 319.393 179.35C320.307 179.35 321.482 179.09 322.004 178.829V164.752ZM318.87 182.479C312.995 182.479 308.164 179.09 308.164 172.051C308.164 165.665 312.864 161.103 319.001 161.103C320.307 161.103 321.351 161.233 322.135 161.363V151.457H326.052V180.915C324.354 181.697 321.873 182.479 318.87 182.479Z" fill="white"/>
<path fill-rule="evenodd" clip-rule="evenodd" d="M402.825 168.662H404.653C408.57 168.662 412.096 167.62 412.096 163.058C412.096 158.756 409.354 157.062 404.392 157.062H402.825V168.662ZM404.914 153.673C410.79 153.673 415.882 155.889 415.882 162.797C415.882 169.184 410.921 172.051 404.784 172.051H402.825V181.957H398.908V153.543L404.914 153.673Z" fill="white"/>
<path d="M361.044 180.915C360.652 180.784 360.391 180.523 360.13 180.393L359.869 180.263L359.999 180.002L361.305 177.526L361.435 177.135L361.697 177.395C361.958 177.526 362.219 177.656 362.349 177.786C362.611 177.917 362.872 178.047 363.133 178.177C363.394 178.308 363.786 178.438 364.047 178.568C364.439 178.699 364.7 178.829 365.091 178.829C365.483 178.959 365.875 178.959 366.266 178.959C366.658 178.959 367.05 179.09 367.442 179.09C367.833 179.09 368.225 179.09 368.486 179.09C368.747 179.09 369.139 178.959 369.531 178.959C369.792 178.829 370.183 178.829 370.445 178.699C370.706 178.568 370.967 178.438 371.228 178.308C371.489 178.177 371.62 177.917 371.881 177.786C372.011 177.526 372.273 177.395 372.403 177.004C372.534 176.744 372.664 176.483 372.664 176.092C372.664 175.831 372.795 175.44 372.795 175.049C372.795 174.658 372.795 174.267 372.664 174.006C372.534 173.746 372.403 173.355 372.273 173.094C372.142 172.833 371.881 172.573 371.75 172.312C371.489 172.051 371.228 171.791 370.967 171.53C370.706 171.269 370.445 171.009 370.053 170.878C369.792 170.618 369.4 170.487 369.008 170.227C368.617 169.966 368.225 169.835 367.833 169.575C367.442 169.314 367.05 169.184 366.658 168.923C366.266 168.662 365.875 168.532 365.483 168.271C365.091 168.011 364.7 167.75 364.308 167.62C363.916 167.359 363.525 167.098 363.263 166.838C362.872 166.577 362.611 166.316 362.219 165.925C361.958 165.665 361.566 165.274 361.435 164.882C361.305 164.491 360.913 164.1 360.783 163.709C360.652 163.318 360.521 162.797 360.391 162.406C360.26 162.015 360.26 161.363 360.26 160.842C360.26 160.321 360.26 159.799 360.391 159.278C360.521 158.756 360.652 158.365 360.783 157.844C360.913 157.453 361.174 156.932 361.435 156.541C361.697 156.15 362.088 155.759 362.48 155.498C362.872 155.107 363.263 154.846 363.786 154.585C364.177 154.325 364.7 154.064 365.222 153.934C365.744 153.803 366.266 153.543 366.919 153.543C367.572 153.412 368.225 153.412 368.878 153.412C369.269 153.412 369.792 153.412 370.183 153.412C370.575 153.412 370.967 153.543 371.359 153.543C371.75 153.673 372.142 153.673 372.534 153.803C372.925 153.934 373.187 153.934 373.578 154.064C373.839 154.194 374.231 154.325 374.492 154.325C374.753 154.455 375.014 154.585 375.276 154.716L375.406 154.846V158.626L374.884 158.365C374.492 158.105 373.97 157.974 373.578 157.714C373.056 157.583 372.664 157.323 372.142 157.323C371.62 157.192 371.097 157.062 370.575 157.062C370.053 156.932 369.531 156.932 369.008 156.932C368.747 156.932 368.356 156.932 368.094 156.932C367.833 156.932 367.442 157.062 367.18 157.062C366.919 157.192 366.658 157.192 366.397 157.323C366.136 157.453 365.875 157.583 365.744 157.714C365.483 157.844 365.352 157.974 365.091 158.235C364.961 158.365 364.83 158.626 364.569 158.887C364.308 159.147 364.308 159.408 364.308 159.669C364.308 159.93 364.177 160.321 364.177 160.581C364.177 160.972 364.177 161.233 364.308 161.624C364.438 161.885 364.439 162.276 364.7 162.536C364.83 162.797 365.091 163.058 365.222 163.318C365.483 163.579 365.744 163.84 366.005 164.1C366.266 164.361 366.658 164.622 366.919 164.752C367.18 165.013 367.572 165.143 367.964 165.404C368.356 165.665 368.747 165.795 369.139 166.056C369.531 166.316 369.922 166.447 370.314 166.707C370.706 166.968 371.097 167.098 371.489 167.359C371.881 167.62 372.273 167.88 372.664 168.141C373.056 168.402 373.448 168.662 373.709 168.923C374.101 169.184 374.362 169.575 374.623 169.835C374.884 170.096 375.276 170.487 375.406 170.878C375.667 171.269 375.928 171.66 376.059 172.051C376.19 172.442 376.32 172.964 376.451 173.485C376.581 174.006 376.581 174.528 376.581 175.049C376.581 175.831 376.451 176.613 376.32 177.395C376.19 178.047 375.798 178.699 375.406 179.35C375.014 179.872 374.492 180.524 373.97 180.915C373.448 181.306 372.795 181.697 372.142 182.088C371.489 182.479 370.706 182.609 369.922 182.739C369.139 182.87 368.225 183 367.311 183C366.789 183 366.266 183 365.744 182.87C365.222 182.87 364.7 182.739 364.308 182.609C363.786 182.479 363.394 182.348 363.002 182.218C362.611 182.088 362.219 181.957 361.827 181.827C361.697 181.175 361.435 181.045 361.044 180.915Z" fill="white"/>
<path fill-rule="evenodd" clip-rule="evenodd" d="M386.635 179.872C386.635 181.306 385.46 182.479 384.024 182.479C382.587 182.479 381.412 181.306 381.412 179.872C381.412 178.568 382.587 177.395 384.024 177.395C385.46 177.395 386.635 178.568 386.635 179.872Z" fill="white"/>
</svg>
