<svg width="814" height="1396" viewBox="0 0 814 1396" fill="none" xmlns="http://www.w3.org/2000/svg">
<path d="M553.655 528.758C546.285 528.758 538.206 530.721 529.292 535.172C515.462 542.078 505.476 552.571 499.064 567.087C492.523 582.682 489.285 598.645 489.285 615.061V826.686C489.285 837.832 490.401 848.407 492.597 858.433C494.529 867.251 498.215 873.843 503.365 878.791C507.525 882.491 514.719 885.32 526.975 885.32C545.169 885.32 559.91 880.415 571.887 871.088C583.999 861.656 594.165 847.009 601.832 826.113L601.837 826.097L601.843 826.081C612.847 796.344 618.538 760.093 618.538 717.031V615.061C618.538 598.685 615.145 582.748 608.275 567.153C601.864 552.603 591.869 542.088 578.017 535.172C569.103 530.721 561.024 528.758 553.655 528.758ZM801.237 678.6C801.237 717.621 797.573 756.462 790.25 795.115C782.839 834.242 769.767 871.124 751.037 905.713L751.004 905.773L750.971 905.833C734.64 935.191 712.442 959.18 684.484 977.674L684.483 977.673C656.068 996.695 621.103 1005.81 580.334 1005.81C543.25 1005.81 512.422 998.417 489.285 982.442V1113.64C489.285 1137.75 485.504 1159.63 477.658 1179.07L477.659 1179.07C469.219 1200.34 452.603 1217.41 429.353 1230.69L412.422 1240.42L412.154 1240.58L411.878 1240.72C394.311 1249.66 378.497 1259.37 364.403 1269.84C351.6 1279.6 339.777 1293.45 329.115 1311.85L306.585 1350.71V957.232C302.111 961.475 297.432 965.425 292.543 969.077L292.533 969.086L292.522 969.094C259.504 993.642 221.017 1005.81 177.568 1005.81C119.153 1005.81 74.9212 989.686 48.812 954.27L48.7925 954.245L48.7739 954.22C23.9347 920.156 12.0786 876.091 12.0786 823.099V268.16C12.0786 224.338 32.5088 189.729 71.6089 165.183L71.9253 164.985L72.2524 164.806L89.1841 155.584L89.3335 155.502L89.4849 155.425C107.046 146.49 122.855 136.778 136.947 126.311C150.131 116.187 162.123 102.138 172.762 83.784L195.291 44.9207V810.802C195.291 824.994 196.288 836.514 198.126 845.541C199.968 854.581 202.511 860.404 205.109 863.91C209.913 870.067 220.218 875.072 240.677 875.072C258.94 875.072 273.356 867.779 284.848 852.285L284.859 852.27L284.871 852.256C296.435 836.763 303.804 817.557 306.585 794.183V773.395L306.073 717.14V717.031C306.073 676.854 312.421 641.638 325.565 611.737C338.428 582.477 355.321 557.281 376.316 536.314C397.105 515.552 419.522 497.566 443.563 482.383C467.421 467.19 490.968 453.529 514.205 441.406L514.289 441.363C541.251 427.563 564.503 413.68 584.111 399.74C602.644 386.564 613.679 371.869 618.546 355.856L623.375 339.97L637.004 349.455C682.683 381.25 717.592 412.266 741.186 442.597C764.794 472.604 780.661 505.462 788.609 541.099L788.987 542.741C796.862 577.307 800.896 617.828 801.237 664.164V678.6Z" stroke="#6A994E" stroke-width="24.1579"/>
</svg>
