<svg width="470" height="748" viewBox="0 0 470 748" fill="none" xmlns="http://www.w3.org/2000/svg">
<path d="M94.2522 556.035C59.5775 556.035 35.2001 546.474 21.1201 527.351C7.04002 508.018 0 482.591 0 451.07V109.694C0 85.5277 11.0329 66.5099 33.0986 52.6405L43.501 46.9667C54.6389 41.2929 64.7261 35.0937 73.7626 28.3692C82.799 21.4345 90.7847 11.9781 97.7197 0V443.504C97.7197 461.577 100.241 473.975 105.285 480.7C110.329 487.214 119.575 490.471 133.025 490.471C146.685 490.471 157.717 484.797 166.123 473.45C174.74 461.892 179.783 447.602 181.254 430.581H209.624C202.689 480.805 186.298 515.583 160.449 534.916C141.536 548.996 119.47 556.035 94.2522 556.035Z" fill="white"/>
<path d="M180.939 748V420.494L180.624 385.82C180.624 361.864 184.406 341.27 191.972 324.039C199.537 306.807 209.414 292.097 221.603 279.909C234.002 267.511 247.346 256.793 261.636 247.757C276.137 238.511 290.427 230.21 304.507 222.855C321.319 214.24 335.924 205.519 348.323 196.693C360.722 187.867 368.708 177.57 372.28 165.802C400.02 185.135 420.825 203.733 434.695 221.595C448.565 239.247 457.811 258.475 462.435 279.279C467.268 300.083 469.79 324.774 470 353.354V362.18C470 385.715 467.793 409.146 463.38 432.472C458.967 455.798 451.192 477.758 440.054 498.351C430.597 515.373 417.778 529.242 401.596 539.96C385.625 550.677 365.661 556.035 341.704 556.035C312.072 556.035 290.952 548.05 278.343 532.079V629.795C278.343 643.875 276.137 656.378 271.724 667.306C267.311 678.443 258.484 687.794 245.245 695.359L234.842 701.349C223.704 707.022 213.617 713.222 204.581 719.946C195.755 726.671 187.874 736.022 180.939 748ZM308.92 496.775C334.138 496.775 351.791 483.011 361.878 455.483C369.023 436.149 372.596 412.929 372.596 385.82V323.093C372.596 311.956 370.284 301.133 365.661 290.626C361.037 280.119 353.682 272.344 343.595 267.3C337.29 264.148 331.196 262.572 325.312 262.572C319.428 262.572 313.333 264.148 307.029 267.3C296.942 272.344 289.586 280.119 284.963 290.626C280.55 301.133 278.343 311.956 278.343 323.093V453.276C278.343 460.631 279.079 467.671 280.55 474.395C282.021 481.12 284.963 486.584 289.376 490.786C293.789 494.779 300.304 496.775 308.92 496.775Z" fill="white"/>
</svg>
